# xmcd
# 
# Track frame offsets:
#     150
#     14812
#     35400
#     50925
#     71625
#     87900
#     108975
#     123000
#     139650
#     156112
# 
# Disc length: 2443
# 
# Revision: 3
# Processed by: cddbd v1.5.2PL0 Copyright (c) Steve Scherf et al.
# Submitted via: fre:ac v1.0.31
# 
DISCID=8809890a
DTITLE=Columbia Blues - The Son Seals Blues Band
DYEAR=0
DGENRE=Blues
TTITLE0=Mother-In-Law Blues
TTITLE1=Sitting At My Window
TTITLE2=Look, Now Baby
TTITLE3=Your Love Is Like A Cancer
TTITLE4=All Your Love
TTITLE5=Cotton Picking Blues
TTITLE6=Hot Sauce
TTITLE7=How Could She Leave Me ?
TTITLE8=Going Home Tomorrow
TTITLE9=Now That I'm Down
EXTD=
EXTT0=
EXTT1=
EXTT2=
EXTT3=
EXTT4=
EXTT5=
EXTT6=
EXTT7=
EXTT8=
EXTT9=
PLAYORDER=
